<?xml version="1.0" encoding="UTF-8" standalone="no"?>
<!-- Generator: Adobe Illustrator 12.0.0, SVG Export Plug-In . SVG Version: 6.00 Build 51448)  -->

<svg
   xmlns:dc="http://purl.org/dc/elements/1.1/"
   xmlns:cc="http://creativecommons.org/ns#"
   xmlns:rdf="http://www.w3.org/1999/02/22-rdf-syntax-ns#"
   xmlns:svg="http://www.w3.org/2000/svg"
   xmlns="http://www.w3.org/2000/svg"
   xmlns:sodipodi="http://sodipodi.sourceforge.net/DTD/sodipodi-0.dtd"
   xmlns:inkscape="http://www.inkscape.org/namespaces/inkscape"
   version="1.1"
   id="Layer_1"
   width="627.92847"
   height="264.05173"
   viewBox="0 0 627.92845 264.05173"
   overflow="visible"
   enable-background="new 0 0 399.821 214.98"
   xml:space="preserve"
   sodipodi:version="0.32"
   inkscape:version="0.91 r13725"
   sodipodi:docname="neuron.svg"
   style="overflow:visible"
   inkscape:export-filename="/Users/rsotoc/Dropbox/pattern-recognition/images/neuron.png"
   inkscape:export-xdpi="76"
   inkscape:export-ydpi="76"><metadata
     id="metadata78"><rdf:RDF><cc:Work
         rdf:about=""><dc:format>image/svg+xml</dc:format><dc:type
           rdf:resource="http://purl.org/dc/dcmitype/StillImage" /><dc:title></dc:title></cc:Work></rdf:RDF></metadata><defs
     id="defs76"><marker
       inkscape:stockid="Arrow2Mend"
       orient="auto"
       refY="0"
       refX="0"
       id="marker8494"
       style="overflow:visible"
       inkscape:isstock="true"><path
         inkscape:connector-curvature="0"
         id="path8496"
         style="fill:#ff0000;fill-opacity:1;fill-rule:evenodd;stroke:#ff0000;stroke-width:0.625;stroke-linejoin:round;stroke-opacity:1"
         d="M 8.7185878,4.0337352 -2.2072895,0.01601326 8.7185884,-4.0017078 c -1.7454984,2.3720609 -1.7354408,5.6174519 -6e-7,8.035443 z"
         transform="scale(-0.6,-0.6)" /></marker><marker
       inkscape:isstock="true"
       style="overflow:visible"
       id="marker8200"
       refX="0"
       refY="0"
       orient="auto"
       inkscape:stockid="Arrow2Mend"
       inkscape:collect="always"><path
         transform="scale(-0.6,-0.6)"
         d="M 8.7185878,4.0337352 -2.2072895,0.01601326 8.7185884,-4.0017078 c -1.7454984,2.3720609 -1.7354408,5.6174519 -6e-7,8.035443 z"
         style="fill:#ff0000;fill-opacity:1;fill-rule:evenodd;stroke:#ff0000;stroke-width:0.625;stroke-linejoin:round;stroke-opacity:1"
         id="path8202"
         inkscape:connector-curvature="0" /></marker><marker
       inkscape:stockid="Arrow2Mend"
       orient="auto"
       refY="0"
       refX="0"
       id="marker7582"
       style="overflow:visible"
       inkscape:isstock="true"
       inkscape:collect="always"><path
         inkscape:connector-curvature="0"
         id="path7584"
         style="fill:#ff0000;fill-opacity:1;fill-rule:evenodd;stroke:#ff0000;stroke-width:0.625;stroke-linejoin:round;stroke-opacity:1"
         d="M 8.7185878,4.0337352 -2.2072895,0.01601326 8.7185884,-4.0017078 c -1.7454984,2.3720609 -1.7354408,5.6174519 -6e-7,8.035443 z"
         transform="scale(-0.6,-0.6)" /></marker><marker
       inkscape:stockid="Arrow2Mend"
       orient="auto"
       refY="0"
       refX="0"
       id="marker6564"
       style="overflow:visible"
       inkscape:isstock="true"><path
         inkscape:connector-curvature="0"
         id="path6566"
         style="fill:#ff0000;fill-opacity:1;fill-rule:evenodd;stroke:#ff0000;stroke-width:0.625;stroke-linejoin:round;stroke-opacity:1"
         d="M 8.7185878,4.0337352 -2.2072895,0.01601326 8.7185884,-4.0017078 c -1.7454984,2.3720609 -1.7354408,5.6174519 -6e-7,8.035443 z"
         transform="scale(-0.6,-0.6)" /></marker><marker
       inkscape:isstock="true"
       style="overflow:visible"
       id="marker5904"
       refX="0"
       refY="0"
       orient="auto"
       inkscape:stockid="Arrow2Mend"><path
         transform="scale(-0.6,-0.6)"
         d="M 8.7185878,4.0337352 -2.2072895,0.01601326 8.7185884,-4.0017078 c -1.7454984,2.3720609 -1.7354408,5.6174519 -6e-7,8.035443 z"
         style="fill:#ff0000;fill-opacity:1;fill-rule:evenodd;stroke:#ff0000;stroke-width:0.625;stroke-linejoin:round;stroke-opacity:1"
         id="path5906"
         inkscape:connector-curvature="0" /></marker><marker
       inkscape:isstock="true"
       style="overflow:visible"
       id="marker4974"
       refX="0"
       refY="0"
       orient="auto"
       inkscape:stockid="Arrow2Mend"
       inkscape:collect="always"><path
         transform="scale(-0.6,-0.6)"
         d="M 8.7185878,4.0337352 -2.2072895,0.01601326 8.7185884,-4.0017078 c -1.7454984,2.3720609 -1.7354408,5.6174519 -6e-7,8.035443 z"
         style="fill:#ff0000;fill-opacity:1;fill-rule:evenodd;stroke:#ff0000;stroke-width:0.625;stroke-linejoin:round;stroke-opacity:1"
         id="path4976"
         inkscape:connector-curvature="0" /></marker><marker
       inkscape:stockid="Arrow2Mend"
       orient="auto"
       refY="0"
       refX="0"
       id="Arrow2Mend"
       style="overflow:visible"
       inkscape:isstock="true"
       inkscape:collect="always"><path
         id="path4213"
         style="fill:#ff0000;fill-opacity:1;fill-rule:evenodd;stroke:#ff0000;stroke-width:0.625;stroke-linejoin:round;stroke-opacity:1"
         d="M 8.7185878,4.0337352 -2.2072895,0.01601326 8.7185884,-4.0017078 c -1.7454984,2.3720609 -1.7354408,5.6174519 -6e-7,8.035443 z"
         transform="scale(-0.6,-0.6)"
         inkscape:connector-curvature="0" /></marker><marker
       inkscape:stockid="Arrow1Mend"
       orient="auto"
       refY="0"
       refX="0"
       id="marker4462"
       style="overflow:visible"
       inkscape:isstock="true"><path
         id="path4464"
         d="M 0,0 5,-5 -12.5,0 5,5 0,0 Z"
         style="fill:#ff0000;fill-opacity:1;fill-rule:evenodd;stroke:#ff0000;stroke-width:1pt;stroke-opacity:1"
         transform="matrix(-0.4,0,0,-0.4,-4,0)"
         inkscape:connector-curvature="0" /></marker><marker
       inkscape:stockid="Arrow1Mend"
       orient="auto"
       refY="0"
       refX="0"
       id="Arrow1Mend"
       style="overflow:visible"
       inkscape:isstock="true"><path
         id="path4195"
         d="M 0,0 5,-5 -12.5,0 5,5 0,0 Z"
         style="fill:#ff0000;fill-opacity:1;fill-rule:evenodd;stroke:#ff0000;stroke-width:1pt;stroke-opacity:1"
         transform="matrix(-0.4,0,0,-0.4,-4,0)"
         inkscape:connector-curvature="0" /></marker></defs><sodipodi:namedview
     inkscape:window-height="707"
     inkscape:window-width="1161"
     inkscape:pageshadow="2"
     inkscape:pageopacity="0.0"
     guidetolerance="10.0"
     gridtolerance="10.0"
     objecttolerance="10.0"
     borderopacity="1.0"
     bordercolor="#666666"
     pagecolor="#ffffff"
     id="base"
     inkscape:zoom="0.94736011"
     inkscape:cx="181.79151"
     inkscape:cy="192.12905"
     inkscape:window-x="137"
     inkscape:window-y="0"
     inkscape:current-layer="Layer_1"
     showgrid="false"
     inkscape:window-maximized="0"
     fit-margin-top="0"
     fit-margin-left="0"
     fit-margin-right="0"
     fit-margin-bottom="0" /><path
     d="m 220.50155,164.47106 c 4.67474,-1.9329 4.53382,-1.76454 2.50678,-9.93069 -27.89637,-11.60648 -24.63077,-33.05935 -21.43326,-55.281881 7.19266,2.774251 16.51328,-0.655504 24.25142,-5.868641 -12.4649,5.841761 -20.76817,4.085611 -23.09555,2.564713 4.52289,-18.468458 1.59315,-3.301651 16.80741,-18.049535 15.21427,-14.747882 -1.60298,-2.245918 -5.68547,0.717298 -4.0825,2.963216 -13.24491,6.142695 -6.93995,-7.306363 6.30495,-13.449057 -4.92721,1.694382 -6.7582,13.829361 -4.60141,-15.896801 -15.87444,-31.79408 -14.19393,-29.196321 5.14949,7.960139 9.81363,22.656895 11.78141,30.791594 -0.81827,12.767245 -3.49567,13.19321 -8.50991,30.891175 -6.04671,0.10391 -11.46456,-1.21917 -10.99252,-5.97841 2.861,-28.845524 5.06925,-33.38138 11.4583,-33.983703 -16.34988,-4.219882 -4.00947,30.048383 -22.49296,14.610846 -2.03315,2.204674 9.92443,3.821034 8.22918,11.986177 -1.70211,8.19829 -6.01805,14.46991 -6.01805,14.46991 -9.62177,0.63929 -17.47508,5.96131 -21.54474,11.82246 -1.05817,-10.94265 -4.98865,-16.73425 -4.97102,-22.52789 4.47955,-5.19119 12.04847,-10.283145 14.33671,-16.488225 -3.93876,2.018663 -15.90314,15.011695 -17.14369,12.428755 -1.72551,-3.59271 15.44137,-26.102977 18.07519,-26.82556 3.97758,-2.762932 11.6238,-1.958849 23.54935,-14.37025 -21.74057,12.819866 -26.4089,15.270786 -24.35749,-7.646108 -3.45684,4.09737 -2.08968,13.564949 -1.04628,18.926083 -5.78967,8.291835 -7.56911,9.843484 -8.17003,-1.876506 -3.04601,-2.061293 5.24991,9.489688 -11.39582,26.858467 -2.93295,-0.830597 -5.54025,-10.58257 -6.92851,-15.469552 10.25627,-1.831934 6.22963,-9.754729 17.02795,-28.184368 -7.56236,8.490538 -6.00015,10.108382 -6.48188,-12.589533 0.17215,0.774673 -1.39513,22.545636 -4.31644,31.019172 -2.9213,8.473537 -12.73698,9.273403 -8.21434,-11.141818 0,0 3.88912,-16.419916 4.32082,-19.445661 -4.74784,11.574764 -6.64287,16.582296 -6.64287,16.582296 -6.47218,-9.200831 -8.37088,-11.173395 -10.57971,-11.816826 -2.20883,-0.64343 11.36167,7.437818 7.71186,24.524335 -8.73951,-2.604868 -11.23001,-18.487092 -12.0947,-13.734573 1.77612,9.796424 6.99875,11.742554 11.74322,17.305219 4.53461,5.316624 7.25997,18.703667 8.4464,27.575833 C 118.30388,102.33896 101.11979,75.270824 97.091869,64.824138 94.869077,58.586173 96.720858,48.411566 96.720858,48.411566 94.1515,54.240578 94.675262,65.92569 97.78052,72.899843 c 0.29811,1.30214 -13.593811,2.027967 -25.456803,-3.377329 7.225732,8.985605 25.053543,5.698922 26.284117,7.962884 7.189096,13.226206 11.803416,15.451149 17.005296,23.938582 -1.71814,1.0317 -11.90704,4.03665 -17.7648,-2.745932 2.48591,9.114112 12.70695,5.707682 18.50106,6.818632 4.82295,0.92474 10.01178,1.39339 16.35571,5.50531 7.3775,5.6623 6.08602,34.39049 3.89216,35.62597 -6.30628,3.4218 -23.58089,1.51572 -27.19322,0.29408 -4.17941,-1.41341 1.63679,-14.39579 6.65207,-17.09345 -8.19902,-4.3396 -9.40206,18.19678 -13.03221,15.8939 -3.510247,-2.22681 -8.13606,-9.32256 -8.552987,-27.25293 0,0 -6.810804,7.39622 4.952085,27.87169 -22.913202,-0.22088 -8.196146,-9.01169 -24.179827,-16.45995 14.381979,5.44895 -0.905684,14.73028 20.198512,20.18888 -14.132398,8.4676 -13.151508,24.07143 -12.932983,17.13481 5.722007,-8.63322 12.075327,-15.41713 23.50783,-15.51974 7.04736,0.81103 -1.88398,8.8501 -1.45081,19.37606 2.47794,-8.81669 7.11397,-10.60528 6.95573,-18.98426 6.07082,0.94622 15.42499,1.00799 22.5538,3.81963 3.24265,1.27891 -0.13891,6.63472 6.44341,21.14888 -3.06268,4.2596 -19.41112,25.26869 -24.66552,28.10435 -8.60346,-1.76691 -12.02628,-0.0508 -22.245566,5.96253 3.024448,2.15976 11.139206,-5.16686 17.928686,-4.24463 9.64828,0.86208 -13.610033,19.41908 -13.29447,23.19783 8.23127,-5.02225 17.3368,-18.65362 18.4562,-21.77775 0.41624,4.81497 2.01802,14.53053 4.53703,13.34378 1.29638,1.72807 -2.91577,-9.43252 -2.37165,-14.81276 1.82417,-1.32777 5.49904,-5.83815 6.08025,-4.31981 1.95528,5.10774 7.48824,10.89925 7.79692,15.58638 -0.56004,-6.44759 -4.14083,-10.30071 -4.90605,-15.37289 -0.32453,-2.15117 13.63799,-14.52913 16.46841,-17.08678 6.53373,4.65379 13.20027,2.72037 16.38757,6.50547 2.07509,2.4643 0.78413,13.20376 -2.9796,20.58872 -6.25163,-3.14653 -12.323,4.07061 -16.0128,6.93277 8.9119,-3.30139 11.36342,-8.09561 14.32905,-4.97293 2.96563,3.12267 -6.07173,22.84366 -3.72737,22.24175 2.34435,-0.60191 7.45114,-23.63139 8.46022,-25.23145 5.03118,-7.97768 5.71547,14.89565 6.82994,14.75812 1.33054,-0.1642 0.63023,-15.44267 -4.48894,-19.59176 3.62305,-8.64994 8.62204,-16.45736 12.17297,-16.38888 7.50085,0.14465 3.82708,6.4596 15.03614,17.97375 0.79434,3.84014 -6.55228,14.87138 -1.64141,16.36822 -0.18574,-8.69422 5.27491,-11.76274 3.80252,-13.73836 0,0 9.69176,19.18191 11.8033,16.57758 -3.3092,-9.05194 -19.00478,-22.31588 9.0866,-15.54179 -7.06795,-5.2071 -15.01116,-4.62137 -18.80941,-2.92414 -4.37493,-3.52619 -6.84355,-6.69008 -9.54013,-11.90084 -3.91722,-7.56946 -0.14658,-19.38375 12.46213,-8.85619 1.50068,9.09119 5.33473,12.4664 6.77453,13.06056 2.99139,1.23447 -10.46999,-16.40737 4.91879,-10.05612 9.27466,3.82784 17.77388,8.54939 16.75989,5.20129 -7.36551,-3.18033 -21.96158,-12.78882 -25.95433,-16.51418 0.18109,-7.32339 11.53226,-10.32003 20.52899,-15.64634 z"
     id="path3"
     inkscape:connector-curvature="0"
     style="fill:#ffd5e5;stroke:#000000;stroke-width:1.29637742"
     sodipodi:nodetypes="ccccczzzcsccsccsccccsccccccccczccccccscccccsccsccscsccccccccsccccccccscscscczzsscsccscccccssccc"
     inkscape:export-xdpi="76"
     inkscape:export-ydpi="76" /><path
     d="m 161.23542,150.05006 c 3.65075,-10.78008 17.33389,-5.54601 22.44861,-1.00992 5.11473,4.53609 -2.88355,11.08702 -2.3936,14.42135 0.48994,3.33434 4.45311,12.24184 3.58408,14.21057 -0.86903,1.96873 -2.2132,4.63591 -5.99574,2.91685 -3.78255,-1.71906 -9.89481,-5.73442 -13.51478,-9.85895 -3.61998,-4.12453 -7.77931,-9.89983 -4.12857,-20.6799 z"
     id="path5"
     inkscape:connector-curvature="0"
     style="fill:#5b9974;stroke:#000000;stroke-width:1.29637742"
     sodipodi:nodetypes="zzzzzzz"
     inkscape:export-xdpi="76"
     inkscape:export-ydpi="76" /><path
     d="m 221.17308,164.54624 c 2.91685,-5.8337 2.10661,-7.77827 1.45842,-9.56078 -0.64819,-1.78252 22.59196,-0.62448 30.89874,2.48559 8.30679,3.11008 12.77189,5.62328 14.58404,8.76337 1.42301,2.46579 -1.40641,7.14658 -4.97098,10.14126 -10.7008,1.28199 -28.99021,-1.12555 -41.97022,-11.82944 z"
     id="path7"
     inkscape:connector-curvature="0"
     style="fill:#f9d566;stroke:#000000;stroke-width:1.29637742"
     sodipodi:nodetypes="cszscc"
     inkscape:export-xdpi="76"
     inkscape:export-ydpi="76" /><path
     d="m 270.92156,174.26907 c 1.45842,-4.21323 5.69652,-6.78722 6.99289,-7.27337 9.55963,-0.77828 32.29489,4.06491 36.38276,6.47251 2.98471,0.56903 3.61803,7.76889 3.61803,9.22731 0,1.45843 -1.46589,5.5869 -6.00321,5.5869 -8.86878,1.00365 -40.56763,0.22382 -40.99047,-14.01335 z"
     id="path9"
     inkscape:connector-curvature="0"
     style="fill:#f9d566;stroke:#000000;stroke-width:1.29637742"
     sodipodi:nodetypes="cccscc"
     inkscape:export-xdpi="76"
     inkscape:export-ydpi="76" /><path
     d="m 322.37527,186.48365 c 0.32409,-3.40299 0.40138,-7.83931 1.85981,-8.64954 4.22571,-2.43548 29.04225,-7.63914 38.59401,-6.38527 3.12252,0.46434 5.68849,4.99227 6.01259,6.93684 0.32409,1.94456 -0.0233,6.81264 -3.19734,7.37631 -5.93182,4.24081 -40.05241,5.87769 -43.26907,0.72166 z"
     id="path11"
     inkscape:connector-curvature="0"
     style="fill:#f9d566;stroke:#000000;stroke-width:1.29637742"
     sodipodi:nodetypes="cccscc"
     inkscape:export-xdpi="76"
     inkscape:export-ydpi="76" /><path
     d="m 384.73225,178.83757 c -8.08256,2.69076 -11.2035,2.13199 -12.04507,-2.94803 -0.69177,-4.1758 0.11149,-8.41031 4.21323,-11.63622 4.69937,-3.6959 17.98724,-9.59196 20.09385,-10.56424 2.10661,-0.97228 8.91259,-3.0789 11.99149,0.97228 3.0789,4.05118 1.61301,9.54454 -1.05704,12.53868 -3.20667,3.59589 -15.11391,8.94677 -23.19646,11.63753 z"
     id="path13"
     inkscape:connector-curvature="0"
     style="fill:#f9d566;stroke:#000000;stroke-width:1.29637742"
     sodipodi:nodetypes="zsssssz"
     inkscape:export-xdpi="76"
     inkscape:export-ydpi="76" /><path
     d="m 411.09236,150.93428 c -3.16316,-5.87519 -4.37527,-9.07465 -1.45842,-13.28787 2.91685,-4.21323 17.01495,-24.30708 17.50109,-24.95527 0.48615,-0.64819 5.99575,-3.07889 10.85716,1.13433 4.86142,4.21323 5.8337,7.13008 1.29638,13.28787 -4.53732,6.15779 -15.07038,22.68661 -18.79747,24.63117 -3.72708,1.94457 -5.70283,1.1194 -9.39874,-0.81023 z"
     id="path15"
     inkscape:connector-curvature="0"
     style="fill:#f9d566;stroke:#000000;stroke-width:1.29637742"
     sodipodi:nodetypes="csssssc"
     inkscape:export-xdpi="76"
     inkscape:export-ydpi="76" /><ellipse
     cx="237.37781"
     cy="161.46733"
     rx="4.3752737"
     ry="2.754802"
     id="ellipse17"
     style="fill:#e68b60;stroke:#b76328;stroke-width:1.29637742"
     inkscape:export-xdpi="76"
     inkscape:export-ydpi="76" /><ellipse
     cx="291.6636"
     cy="179.45459"
     rx="4.3752737"
     ry="2.754802"
     id="ellipse19"
     style="fill:#e68b60;stroke:#b76328;stroke-width:1.29637742"
     inkscape:export-xdpi="76"
     inkscape:export-ydpi="76" /><ellipse
     cx="346.43555"
     cy="183.34372"
     rx="4.3752737"
     ry="2.754802"
     id="ellipse21"
     style="fill:#e68b60;stroke:#b76328;stroke-width:1.29637742"
     inkscape:export-xdpi="76"
     inkscape:export-ydpi="76" /><ellipse
     transform="matrix(0.91195892,-0.41028152,0.41028152,0.91195892,0,0)"
     cx="288.61661"
     cy="311.51636"
     rx="4.3754706"
     ry="2.754926"
     id="ellipse23"
     style="fill:#e68b60;stroke:#b76328;stroke-width:1.29643583"
     inkscape:export-xdpi="76"
     inkscape:export-ydpi="76" /><ellipse
     transform="matrix(0.54222254,-0.84023492,0.84023492,0.54222254,0,0)"
     cx="119.58073"
     cy="426.92654"
     rx="4.375092"
     ry="2.7546875"
     id="ellipse25"
     style="fill:#e68b60;stroke:#b76328;stroke-width:1.29632354"
     inkscape:export-xdpi="76"
     inkscape:export-ydpi="76" /><path
     d="m 268.81495,169.40765 c 2.91685,0.64819 4.86141,0.64819 4.86141,0.64819 l -2.7548,4.21323 -5.34756,-0.16205 3.24095,-4.69937 z"
     id="path27"
     inkscape:connector-curvature="0"
     style="fill:#afa3cf;stroke:#000000;stroke-width:1.29637742"
     inkscape:export-xdpi="76"
     inkscape:export-ydpi="76" /><path
     d="m 317.4291,179.94072 5.34755,-0.32409 -1.13433,5.34755 -4.05117,0 c 0,0 0.32409,-4.37527 -0.16205,-5.02346 z"
     id="path29"
     inkscape:connector-curvature="0"
     style="fill:#afa3cf;stroke:#000000;stroke-width:1.29637742"
     inkscape:export-xdpi="76"
     inkscape:export-ydpi="76" /><path
     d="m 367.33963,175.24135 c 0,0 4.37527,-3.24094 4.69937,-4.05118 0.32409,-0.81023 0.48614,6.48189 0.64818,6.96803 0.16205,0.48614 -2.91684,1.13433 -2.91684,1.13433 l -2.43071,-4.05118 z"
     id="path31"
     inkscape:connector-curvature="0"
     style="fill:#afa3cf;stroke:#000000;stroke-width:1.29637742"
     inkscape:export-xdpi="76"
     inkscape:export-ydpi="76" /><path
     d="m 405.42071,152.06861 3.56504,-5.02347 3.72709,5.67166 -2.59276,2.4307 c 0,0 -2.26866,-2.7548 -4.69937,-3.07889 z"
     id="path33"
     inkscape:connector-curvature="0"
     style="fill:#afa3cf;stroke:#000000;stroke-width:1.29637742"
     inkscape:export-xdpi="76"
     inkscape:export-ydpi="76" /><path
     d="m 433.34727,111.28717 0.15946,-0.35003 c 9.74152,-12.165849 14.75117,-43.990932 9.55635,-45.585709 -6.34209,-2.010636 -10.63796,3.11869 -16.19769,2.505795 6.96284,-4.061069 12.93427,-5.128668 3.60722,-9.3768 -9.32705,-4.248131 3.04599,-12.008485 3.04599,-12.008485 0,0 -7.57415,6.774179 -2.17214,10.015122 5.402,3.240944 12.15404,5.536465 13.88341,5.75296 8.0676,-1.968547 1.62868,-11.231093 9.27671,-20.470671 -2.88939,7.512927 -2.81013,12.835942 -2.59952,17.942615 3.71359,-0.391445 4.73507,-10.163035 18.14884,-6.514894 -7.77007,0.330786 -17.21247,2.956689 -5.1783,5.778826 -17.26138,-1.254837 -15.26091,15.78028 -15.11041,21.198209 5.8337,-3.240943 22.9044,-13.396764 25.06416,-14.260151 2.5832,-1.619331 5.64454,-2.816252 7.12343,-4.319336 4.27951,-1.118967 1.43082,-14.657165 12.20556,-15.520421 -5.15256,3.405149 -6.55082,6.389752 -8.67515,16.274193 6.30575,-2.943051 11.07619,-1.781159 19.0045,4.703466 -9.16347,-5.479434 -12.94848,-4.472653 -17.69232,-2.275638 -17.76063,8.225457 -41.08635,20.00931 -38.91905,32.606287 11.94726,-1.998875 16.67702,-2.379171 26.53579,0.280675 1.67978,0.129962 2.53015,-7.114427 8.07814,-13.591813 5.37987,-6.281095 15.57217,-11.777737 10.29974,-13.117202 7.02889,2.60424 -1.78212,8.695721 -7.29326,14.802671 -5.43937,6.027446 -5.54963,9.155572 -7.56254,13.96511 4.47285,1.899571 4.36423,3.743381 8.87641,5.333521 8.5938,-1.21953 16.84174,-4.68701 25.4856,2.51901 -8.71146,-4.62145 -28.32286,-3.93827 5.61971,14.2303 -4.77307,0.22533 -17.64843,-5.91641 -22.68505,-15.69341 -4.96213,0.0381 -4.89463,3.71257 -4.89463,3.71257 3.18909,3.39261 4.28678,9.69555 5.44122,14.94028 5.12712,5.50957 -0.53432,22.03601 10.52496,18.49891 -6.49401,3.79266 -9.13575,-0.29142 -9.43464,-6.69531 -0.2989,-6.40392 -1.89566,-9.91987 -5.37315,-3.91077 -1.37192,2.95638 -4.88113,5.18131 -7.59063,3.91077 1.89323,-1.07987 7.5719,-4.53884 8.95752,-10.33882 -0.74057,-21.24205 -24.60162,-28.945415 -35.25246,-24.39843 4.11892,1.82293 4.39673,9.63394 13.6244,14.90021 -7.15011,-2.2129 -9.6332,-7.33312 -13.6682,-10.68353 -4.76508,-2.8851 0.51968,10.43569 -4.29608,13.87623 0.14487,-4.77969 4.47035,-29.559024 -15.38657,-6.69045 -3.02575,-0.86598 -4.53733,-1.94586 -4.53733,-1.94586 z"
     id="path35"
     inkscape:connector-curvature="0"
     style="fill:#ffd5e5;stroke:#000000;stroke-width:1.29637742"
     sodipodi:nodetypes="cccczcscccccccccccsccscscccccccczccccccccc"
     inkscape:export-xdpi="76"
     inkscape:export-ydpi="76" /><path
     d="M 532.08715,162.49407"
     id="path37"
     inkscape:connector-curvature="0"
     style="fill:#afa3cf;stroke:#000000;stroke-width:1.29637742"
     inkscape:export-xdpi="76"
     inkscape:export-ydpi="76" /><line
     x1="240.61874"
     y1="92.921387"
     x2="200.43105"
     y2="145.42467"
     id="line39"
     style="stroke:#0000ff;stroke-width:1.29637742"
     inkscape:export-xdpi="76"
     inkscape:export-ydpi="76" /><line
     x1="151.81689"
     y1="15.786933"
     x2="153.76146"
     y2="76.068481"
     id="line41"
     style="stroke:#0000ff;stroke-width:1.29637742"
     inkscape:export-xdpi="76"
     inkscape:export-ydpi="76" /><path
     style="fill:#0000ff;stroke:#0000ff;stroke-width:1.29637742"
     d="m 171.91074,175.88954 -39.69755,74.1931"
     id="line43"
     inkscape:connector-curvature="0"
     sodipodi:nodetypes="cc"
     inkscape:export-xdpi="76"
     inkscape:export-ydpi="76" /><line
     x1="221.17308"
     y1="164.54623"
     x2="241.26694"
     y2="201.81709"
     id="line45"
     style="fill:none;stroke:#000000;stroke-width:1.29637742"
     inkscape:export-xdpi="76"
     inkscape:export-ydpi="76" /><line
     x1="350.16263"
     y1="192.74245"
     x2="350.81082"
     y2="229.68921"
     id="line47"
     style="fill:none;stroke:#0000ff;stroke-width:1.29637742"
     inkscape:export-xdpi="76"
     inkscape:export-ydpi="76" /><line
     x1="392.12897"
     y1="168.19165"
     x2="449.98367"
     y2="198.57616"
     id="line49"
     style="fill:none;stroke:#0000ff;stroke-width:1.29637742"
     inkscape:export-xdpi="76"
     inkscape:export-ydpi="76" /><line
     x1="407.20322"
     y1="148.66562"
     x2="386.46118"
     y2="81.25399"
     id="line51"
     style="fill:none;stroke:#0000ff;stroke-width:1.29637742"
     inkscape:export-xdpi="76"
     inkscape:export-ydpi="76" /><path
     style="fill:none;stroke:#0000ff;stroke-width:1.29637742"
     d="M 510.04875,109.55779 542.22087,38.884731"
     id="line53"
     inkscape:connector-curvature="0"
     sodipodi:nodetypes="cc"
     inkscape:export-xdpi="76"
     inkscape:export-ydpi="76" /><text
     font-size="14"
     id="text55"
     style="font-size:16.20471764px;font-family:Verdana"
     x="111.04017"
     y="12.311788"
     inkscape:export-xdpi="76"
     inkscape:export-ydpi="76"><tspan
       style="font-size:16.20471764px"
       id="tspan6544">Dendrita</tspan></text>
<text
     font-size="14"
     id="text57"
     style="font-size:16.20471764px;line-height:125%;font-family:Verdana;text-align:start;writing-mode:lr-tb;text-anchor:start"
     sodipodi:linespacing="125%"
     x="238.32176"
     y="61.268063"
     inkscape:export-xdpi="76"
     inkscape:export-ydpi="76"><tspan
       sodipodi:role="line"
       id="tspan1931"
       x="238.32176"
       y="61.268063"
       style="font-size:16.20471764px">Cuerpo</tspan><tspan
       sodipodi:role="line"
       id="tspan1933"
       x="238.32176"
       y="81.523956"
       style="font-size:16.20471764px">celular</tspan></text>
<text
     id="text59"
     x="330.35172"
     y="59.511246"
     style="font-style:normal;font-variant:normal;font-weight:normal;font-stretch:normal;font-size:16.20471764px;line-height:125%;font-family:'Bitstream Vera Sans';text-align:start;writing-mode:lr-tb;text-anchor:start"
     sodipodi:linespacing="125%"
     inkscape:export-xdpi="76"
     inkscape:export-ydpi="76"><tspan
       sodipodi:role="line"
       id="tspan1927"
       x="330.35172"
       y="59.511246"
       style="font-size:16.20471764px">Nodo de</tspan><tspan
       sodipodi:role="line"
       id="tspan1929"
       x="330.35172"
       y="79.767143"
       style="font-size:16.20471764px">Ranvier</tspan></text>
<text
     font-size="14"
     id="text65"
     style="font-style:normal;font-variant:normal;font-weight:normal;font-stretch:normal;font-size:15.55652905px;line-height:125%;font-family:'Bitstream Vera Sans';text-align:start;writing-mode:lr-tb;text-anchor:start"
     x="508.51212"
     y="15.195563"
     sodipodi:linespacing="125%"
     inkscape:export-xdpi="76"
     inkscape:export-ydpi="76"><tspan
       sodipodi:role="line"
       id="tspan1939"
       x="508.51212"
       y="15.195563"
       style="font-size:16.20471764px">Terminal del </tspan><tspan
       sodipodi:role="line"
       id="tspan1941"
       x="508.51212"
       y="35.451462"
       style="font-size:16.20471764px">Axon</tspan></text>
<text
     font-size="14"
     id="text67"
     style="font-style:normal;font-variant:normal;font-weight:normal;font-stretch:normal;font-size:16.20471764px;line-height:125%;font-family:'Bitstream Vera Sans';text-align:start;writing-mode:lr-tb;text-anchor:start"
     sodipodi:linespacing="125%"
     x="450.92511"
     y="193.61945"
     inkscape:export-xdpi="76"
     inkscape:export-ydpi="76"><tspan
       sodipodi:role="line"
       id="tspan1935"
       x="450.92511"
       y="193.61945"
       style="font-size:16.20471764px">Célula de </tspan><tspan
       sodipodi:role="line"
       id="tspan1937"
       x="450.92511"
       y="213.87534"
       style="font-size:16.20471764px">Schwann </tspan></text>
<text
     font-size="14"
     id="text69"
     x="321.3414"
     y="244.24246"
     style="font-size:16.20471764px;font-family:Verdana"
     inkscape:export-xdpi="76"
     inkscape:export-ydpi="76"><tspan
       style="font-size:16.20471764px"
       id="tspan6548">Mielina</tspan></text>
<text
     font-size="14"
     id="text71"
     style="font-size:16.20471764px;font-family:Verdana"
     x="237.37781"
     y="219.96623"
     inkscape:export-xdpi="76"
     inkscape:export-ydpi="76"><tspan
       style="font-size:16.20471764px"
       id="tspan6550">Axon</tspan></text>
<text
     font-size="14"
     id="text73"
     style="font-size:16.20471764px;font-family:Verdana"
     x="84.886238"
     y="263.80643"
     inkscape:export-xdpi="76"
     inkscape:export-ydpi="76"><tspan
       style="font-size:16.20471764px"
       id="tspan6546">Núcleo</tspan></text>
<text
     xml:space="preserve"
     style="font-style:normal;font-weight:normal;font-size:16.20471764px;line-height:125%;font-family:sans-serif;letter-spacing:0px;word-spacing:0px;fill:#000000;fill-opacity:1;stroke:none;stroke-width:1px;stroke-linecap:butt;stroke-linejoin:miter;stroke-opacity:1"
     x="-1.5904044"
     y="118.23306"
     id="text4176"
     sodipodi:linespacing="125%"
     inkscape:export-xdpi="76"
     inkscape:export-ydpi="76"><tspan
       sodipodi:role="line"
       id="tspan4178"
       x="-1.5904044"
       y="118.23306"
       style="font-size:16.20471764px">Estímulos</tspan></text>
<path
     style="fill:none;fill-rule:evenodd;stroke:#ff0000;stroke-width:1.29637742px;stroke-linecap:butt;stroke-linejoin:miter;stroke-opacity:1;marker-end:url(#Arrow2Mend)"
     d="m 64.316482,128.50656 c 12.633787,7.07532 5.542677,18.24484 20.483853,21.84007"
     id="path4180"
     inkscape:connector-curvature="0"
     sodipodi:nodetypes="cc"
     inkscape:export-xdpi="76"
     inkscape:export-ydpi="76" /><path
     sodipodi:nodetypes="cc"
     inkscape:connector-curvature="0"
     id="path4972"
     d="m 91.95241,101.68947 c 5.672607,7.81309 12.67858,10.32525 27.03459,9.35273"
     style="fill:none;fill-rule:evenodd;stroke:#ff0000;stroke-width:1.29637742px;stroke-linecap:butt;stroke-linejoin:miter;stroke-opacity:1;marker-end:url(#marker4974)"
     inkscape:export-xdpi="76"
     inkscape:export-ydpi="76" /><path
     sodipodi:nodetypes="cc"
     inkscape:connector-curvature="0"
     id="path5902"
     d="m 91.124244,200.90892 c 12.312736,1.61746 24.163636,-2.62347 34.931156,-13.79659"
     style="fill:none;fill-rule:evenodd;stroke:#ff0000;stroke-width:1.29637742px;stroke-linecap:butt;stroke-linejoin:miter;stroke-opacity:1;marker-end:url(#marker5904)"
     inkscape:export-xdpi="76"
     inkscape:export-ydpi="76" /><text
     sodipodi:linespacing="125%"
     id="text6558"
     y="147.27776"
     x="299.14517"
     style="font-style:normal;font-weight:normal;font-size:16.20471764px;line-height:125%;font-family:sans-serif;letter-spacing:0px;word-spacing:0px;fill:#000000;fill-opacity:1;stroke:none;stroke-width:1px;stroke-linecap:butt;stroke-linejoin:miter;stroke-opacity:1"
     xml:space="preserve"
     inkscape:export-xdpi="76"
     inkscape:export-ydpi="76"><tspan
       style="font-size:16.20471764px"
       y="147.27776"
       x="299.14517"
       id="tspan6560"
       sodipodi:role="line">Impulso</tspan></text>
<path
     style="fill:none;fill-rule:evenodd;stroke:#ff0000;stroke-width:2.59275484;stroke-linecap:butt;stroke-linejoin:miter;stroke-miterlimit:4;stroke-dasharray:none;stroke-opacity:1;marker-end:url(#marker6564)"
     d="m 288.86828,153.42738 c 35.04794,8.73109 75.10114,3.89941 94.27655,-4.18746"
     id="path6562"
     inkscape:connector-curvature="0"
     sodipodi:nodetypes="cc"
     inkscape:export-xdpi="76"
     inkscape:export-ydpi="76" /><text
     sodipodi:linespacing="125%"
     id="text7576"
     y="119.19285"
     x="535.89075"
     style="font-style:normal;font-weight:normal;font-size:16.20471764px;line-height:125%;font-family:sans-serif;letter-spacing:0px;word-spacing:0px;fill:#000000;fill-opacity:1;stroke:none;stroke-width:1px;stroke-linecap:butt;stroke-linejoin:miter;stroke-opacity:1"
     xml:space="preserve"
     inkscape:export-xdpi="76"
     inkscape:export-ydpi="76"><tspan
       style="font-size:16.20471764px"
       y="119.19285"
       x="535.89075"
       id="tspan7578"
       sodipodi:role="line">Hacia otras </tspan><tspan
       style="font-size:16.20471764px"
       y="139.44875"
       x="535.89075"
       sodipodi:role="line"
       id="tspan9716">neuronas</tspan></text>
<path
     style="fill:none;fill-rule:evenodd;stroke:#ff0000;stroke-width:1.29637742px;stroke-linecap:butt;stroke-linejoin:miter;stroke-opacity:1;marker-end:url(#marker7582)"
     d="m 498.22773,116.85602 c 5.67262,7.81309 12.33647,11.00945 26.69249,12.08955"
     id="path7580"
     inkscape:connector-curvature="0"
     sodipodi:nodetypes="cc"
     inkscape:export-xdpi="76"
     inkscape:export-ydpi="76" /><path
     sodipodi:nodetypes="cc"
     inkscape:connector-curvature="0"
     id="path8198"
     d="m 445.51544,57.292158 c 3.27789,-8.265736 -1.68974,-10.543013 5.48212,-20.752299"
     style="fill:none;fill-rule:evenodd;stroke:#ff0000;stroke-width:1.29637742px;stroke-linecap:butt;stroke-linejoin:miter;stroke-opacity:1;marker-end:url(#marker8200)"
     inkscape:export-xdpi="76"
     inkscape:export-ydpi="76" /><path
     style="fill:none;fill-rule:evenodd;stroke:#ff0000;stroke-width:1.29637742px;stroke-linecap:butt;stroke-linejoin:miter;stroke-opacity:1;marker-end:url(#marker8494)"
     d="m 491.57574,55.752697 c 9.77785,2.339444 12.67857,4.851603 21.21884,11.747446"
     id="path8492"
     inkscape:connector-curvature="0"
     sodipodi:nodetypes="cc"
     inkscape:export-xdpi="76"
     inkscape:export-ydpi="76" /></svg>